<?xml version="1.0" standalone="no"?>
<!DOCTYPE svg PUBLIC "-//W3C//DTD SVG 20010904//EN"
 "http://www.w3.org/TR/2001/REC-SVG-20010904/DTD/svg10.dtd">
<svg version="1.0" xmlns="http://www.w3.org/2000/svg"
 width="700.000000pt" height="700.000000pt" viewBox="0 0 700.000000 700.000000"
 preserveAspectRatio="xMidYMid meet">
<metadata>
Created by potrace 1.11, written by Peter Selinger 2001-2013
</metadata>
<g transform="translate(0.000000,700.000000) scale(0.100000,-0.100000)"
fill="#000000" stroke="none">
<path d="M1008 6985 c-283 -45 -543 -211 -704 -451 -68 -102 -107 -189 -142
-312 l-27 -97 0 -2375 0 -2375 27 -97 c35 -123 74 -210 142 -312 163 -244 421
-407 713 -451 84 -13 370 -15 1936 -15 l1839 0 291 -250 c251 -215 293 -247
307 -236 8 7 191 163 405 345 595 507 633 541 712 619 268 266 407 640 352
948 -25 145 -95 300 -183 410 l-56 69 -2 1865 -3 1865 -27 92 c-121 409 -444
696 -855 758 -140 21 -4590 21 -4725 0z m1564 -892 c11 -10 27 -33 35 -51 28
-67 23 -74 -443 -618 -240 -280 -446 -517 -460 -527 -32 -25 -95 -24 -137 1
-48 28 -589 435 -606 455 -7 10 -16 37 -18 60 -9 81 42 137 126 137 37 0 63
-17 293 -190 190 -142 255 -186 263 -177 6 7 187 218 402 470 420 488 415 483
491 466 19 -4 43 -15 54 -26z m3109 -608 c63 -33 86 -112 49 -172 -41 -67 41
-63 -1230 -63 -1271 0 -1189 -4 -1230 63 -36 59 -18 130 43 167 31 19 59 20
1185 20 1021 0 1156 -2 1183 -15z m-3109 -1142 c11 -10 27 -33 35 -51 28 -67
23 -74 -443 -618 -240 -280 -446 -517 -460 -527 -32 -25 -95 -24 -137 1 -48
28 -589 435 -606 455 -7 10 -16 37 -18 60 -9 81 42 137 126 137 37 0 63 -17
293 -190 190 -142 255 -186 263 -177 6 7 187 218 402 470 420 488 415 483 491
466 19 -4 43 -15 54 -26z m3109 -608 c63 -33 86 -112 49 -172 -41 -67 41 -63
-1230 -63 -1271 0 -1189 -4 -1230 63 -36 59 -18 130 43 167 31 19 59 20 1185
20 1021 0 1156 -2 1183 -15z m-3132 -1249 c72 -38 85 -130 30 -199 -143 -180
-871 -1015 -892 -1024 -37 -17 -72 -16 -109 3 -65 33 -615 455 -626 480 -19
40 -15 98 9 128 40 50 105 69 152 44 12 -6 129 -92 261 -191 l238 -179 23 23
c13 13 190 220 394 459 213 249 385 442 404 452 39 22 79 23 116 4z m1347
-518 c-3 -18 -9 -75 -12 -125 l-7 -93 -264 0 c-292 0 -307 3 -343 63 -36 59
-18 130 43 167 30 19 52 20 311 20 l278 0 -6 -32z"/>
</g>
</svg>
